<?xml version="1.0" encoding="UTF-8"?>
<svg width="60px" height="60px" viewBox="0 0 60 60" version="1.1" xmlns="http://www.w3.org/2000/svg" xmlns:xlink="http://www.w3.org/1999/xlink">
    <!-- Generator: Sketch 49.2 (51160) - http://www.bohemiancoding.com/sketch -->
    <title>Artboard</title>
    <desc>Created with Sketch.</desc>
    <defs></defs>
    <g id="Artboard" stroke="none" stroke-width="1" fill="none" fill-rule="evenodd">
        <rect id="Rectangle-16" fill="#6A5AFF" x="0" y="0" width="60" height="60" rx="10"></rect>
        <g id="Group-2" transform="translate(21.000000, 15.000000)">
            <path d="M9.62521832,11.6698452 C9.62521832,11.6698452 9.35735037,11.6556981 9.2,11.65 L9.2,16.3004632 C9.21979127,16.3004632 9.38889883,16.3091087 9.38889883,16.3091087 C11.8573206,16.4808386 13.6865431,18.234292 13.7649244,20.6 L18.4,20.6 C18.3227945,15.7524599 14.7372439,11.9569133 9.62521832,11.6698452" id="Fill-164" fill="#FFF800"></path>
            <path d="M8.83961112,0 C6.77052,0 4.81439538,0.796484078 3.33171019,2.24390483 C1.85157458,3.68798645 1.00687549,5.61624395 0.955687549,7.67531734 L0.950588367,7.89275455 C0.95,7.92987797 0.95,7.96621572 0.95,8 L5.58888266,8 C5.58770593,7.97132264 5.58731368,7.94343097 5.58731368,7.9155393 L5.58731368,7.84502443 C5.60182674,6.05583245 7.06038888,4.60134057 8.83961112,4.60134057 C10.6411913,4.60134057 12.10701,6.06958187 12.10701,7.87429105 L12.10701,8 L16.7,8 L16.7,7.87311252 C16.7,3.53143951 13.1737196,0 8.83961112,0" id="Fill-166" fill="#FFF800"></path>
            <path d="M18.4494104,20.6 L13.8011904,20.6 C13.8023696,20.6465467 13.807676,20.6936827 13.807676,20.7404258 L13.807676,20.8696568 C13.807676,23.3171897 11.8156098,25.3078969 9.36719218,25.3078969 C9.36640604,25.3078969 9.36640604,25.3069149 9.36463724,25.3069149 L9.36463724,25.3078969 L9.08496969,25.3078969 C6.63674862,25.3063258 4.64546854,23.3158149 4.64546854,20.8696568 L4.64546854,20.6072668 L0.26119337,20.6072668 L0,20.607856 L0,20.8696568 C0,25.8758848 4.07473449,29.9486252 9.08496969,29.9492144 L9.08496969,29.95 L9.36463724,29.95 L9.36463724,29.9492144 L9.36719218,29.9492144 C14.3304558,29.9492144 18.3743345,25.9511059 18.4494104,21.0081186 L18.45,20.6072668 C18.45,20.6041244 18.4494104,20.6021604 18.4494104,20.6" id="Fill-175" fill="#00FFBC"></path>
            <path d="M9.2,11.6507585 L9.06206179,11.6423118 C6.84975265,11.4022673 5.758216,10.0572717 5.60909361,8.22099023 L5.59084574,8 L0.95,8 L0.95961447,8.25006272 C1.13287114,12.6295979 4.24756695,15.9910066 9.0549981,16.2935176 L9.2,16.3 L9.2,11.6507585 Z" id="Fill-176" fill="#00FFBC"></path>
        </g>
    </g>
</svg>