<?xml version="1.0" encoding="UTF-8"?>
<svg width="60px" height="60px" viewBox="0 0 60 60" version="1.1" xmlns="http://www.w3.org/2000/svg" xmlns:xlink="http://www.w3.org/1999/xlink">
    <!-- Generator: Sketch 49.2 (51160) - http://www.bohemiancoding.com/sketch -->
    <title>Artboard</title>
    <desc>Created with Sketch.</desc>
    <defs>
        <path d="M17.7246412,17.3369815 C16.749118,18.0151584 15.5638413,18.4126984 14.2857143,18.4126984 C13.0071751,18.4126984 11.8215462,18.014902 10.8458437,17.3363253 L8.33995793,20.0808668 C8.6898266,20.7159879 8.88888889,21.4458583 8.88888889,22.2222222 C8.88888889,24.6768211 6.89904333,26.6666667 4.44444444,26.6666667 C1.98984556,26.6666667 -8.8817842e-16,24.6768211 -8.8817842e-16,22.2222222 C-8.8817842e-16,19.7676233 1.98984556,17.7777778 4.44444444,17.7777778 C5.1982056,17.7777778 5.90814105,17.9654179 6.53008807,18.2965356 L9.10666285,15.4745727 C8.56519226,14.5700411 8.25396825,13.5118419 8.25396825,12.3809524 C8.25396825,11.169702 8.61099487,10.0418396 9.22555221,9.09686122 L8.43153858,8.37189226 C7.81038353,8.70191399 7.10163011,8.88888889 6.34920635,8.88888889 C3.89460746,8.88888889 1.9047619,6.89904333 1.9047619,4.44444444 C1.9047619,1.98984556 3.89460746,0 6.34920635,0 C8.80380524,0 10.7936508,1.98984556 10.7936508,4.44444444 C10.7936508,5.22150342 10.5942319,5.95198562 10.2437798,6.58750541 L11.0281294,7.30365065 C11.9676615,6.69959979 13.0857685,6.34920635 14.2857143,6.34920635 C15.4310356,6.34920635 16.5017996,6.6684244 17.4138888,7.22274317 L18.0040638,6.57636107 C17.6574139,5.94345175 17.4603175,5.21696526 17.4603175,4.44444444 C17.4603175,1.98984556 19.450163,0 21.9047619,0 C24.3593608,0 26.3492063,1.98984556 26.3492063,4.44444444 C26.3492063,6.89904333 24.3593608,8.88888889 21.9047619,8.88888889 C21.1472495,8.88888889 20.4340001,8.69937642 19.8098391,8.36517684 L19.2595865,8.96783449 C19.926888,9.93842206 20.3174603,11.1140757 20.3174603,12.3809524 C20.3174603,13.5151226 20.004428,14.5761802 19.4600475,15.482441 L20.1187447,16.0838602 C20.7449399,15.7468047 21.4612468,15.5555556 22.2222222,15.5555556 C24.6768211,15.5555556 26.6666667,17.5454011 26.6666667,20 C26.6666667,22.4545989 24.6768211,24.4444444 22.2222222,24.4444444 C19.7676233,24.4444444 17.7777778,22.4545989 17.7777778,20 C17.7777778,19.2312441 17.9729577,18.508075 18.3164665,17.8773437 L17.7246412,17.3369815 Z M21.9047619,6.66666667 C23.1320613,6.66666667 24.1269841,5.67174389 24.1269841,4.44444444 C24.1269841,3.217145 23.1320613,2.22222222 21.9047619,2.22222222 C20.6774625,2.22222222 19.6825397,3.217145 19.6825397,4.44444444 C19.6825397,5.67174389 20.6774625,6.66666667 21.9047619,6.66666667 Z M6.34920635,6.66666667 C7.57650579,6.66666667 8.57142857,5.67174389 8.57142857,4.44444444 C8.57142857,3.217145 7.57650579,2.22222222 6.34920635,2.22222222 C5.12190691,2.22222222 4.12698413,3.217145 4.12698413,4.44444444 C4.12698413,5.67174389 5.12190691,6.66666667 6.34920635,6.66666667 Z M4.44444444,24.4444444 C5.67174389,24.4444444 6.66666667,23.4495217 6.66666667,22.2222222 C6.66666667,20.9949228 5.67174389,20 4.44444444,20 C3.217145,20 2.22222222,20.9949228 2.22222222,22.2222222 C2.22222222,23.4495217 3.217145,24.4444444 4.44444444,24.4444444 Z M22.2222222,22.2222222 C23.4495217,22.2222222 24.4444444,21.2272994 24.4444444,20 C24.4444444,18.7727006 23.4495217,17.7777778 22.2222222,17.7777778 C20.9949228,17.7777778 20,18.7727006 20,20 C20,21.2272994 20.9949228,22.2222222 22.2222222,22.2222222 Z M14.2857143,16.1904762 C16.3896562,16.1904762 18.0952381,14.4848943 18.0952381,12.3809524 C18.0952381,10.2770105 16.3896562,8.57142857 14.2857143,8.57142857 C12.1817724,8.57142857 10.4761905,10.2770105 10.4761905,12.3809524 C10.4761905,14.4848943 12.1817724,16.1904762 14.2857143,16.1904762 Z" id="path-1"></path>
    </defs>
    <g id="Artboard" stroke="none" stroke-width="1" fill="none" fill-rule="evenodd">
        <rect id="Rectangle-16" fill="#6A5AFF" x="0" y="0" width="60" height="60" rx="10"></rect>
        <g id="Icon-/-Multi" transform="translate(10.000000, 10.000000)">
            <g id="Frame_-_24px">
                <rect id="Rectangle-path" x="0" y="0" width="40" height="40"></rect>
            </g>
            <g id="Filled_Icons" transform="translate(6.666667, 6.666667)">
                <mask id="mask-2" fill="white">
                    <use xlink:href="#path-1"></use>
                </mask>
                <use id="Mask" fill="#2C3238" xlink:href="#path-1"></use>
                <g id="Color-/-color-white" mask="url(#mask-2)" fill="#FFFFFF">
                    <g transform="translate(-26.666667, -28.333333)">
                        <rect x="0" y="0" width="83.3333333" height="83.3333333"></rect>
                    </g>
                </g>
            </g>
        </g>
    </g>
</svg>