<!-- Generated by IcoMoon.io -->
<svg version="1.1" xmlns="http://www.w3.org/2000/svg" width="32" height="32" viewBox="0 0 32 32">
<title>academy2</title>
<path fill="#2c3238" d="M24 16v11.411l-7.112-4.742c-0.538-0.358-1.238-0.358-1.776 0l-7.112 4.742v-24.211h19.2c0-1.765-1.435-3.2-3.2-3.2h-16c-1.765 0-3.2 1.435-3.2 3.2v27.2c0 0.59 0.325 1.133 0.845 1.411 0.518 0.277 1.15 0.246 1.643-0.080l8.712-5.808 8.712 5.808c0.269 0.179 0.578 0.269 0.888 0.269 0.259 0 0.518-0.062 0.755-0.189 0.52-0.278 0.845-0.821 0.845-1.411v-14.4h-3.2z"></path>
<path fill="#38f" d="M16 18.829l-6.214-6.214 2.829-2.829 3.386 3.386 6.586-6.586 2.829 2.829-9.414 9.414z"></path>
</svg>
