<!-- Generated by IcoMoon.io -->
<svg version="1.1" xmlns="http://www.w3.org/2000/svg" width="29" height="32" viewBox="0 0 29 32">
<title>academy</title>
<path fill="#6a5aff" d="M16.703 25.226c-1.436 1.653-3.418 2.825-5.607 3.322-2.189-0.497-4.171-1.669-5.607-3.322-1.506-1.733-2.338-3.922-2.338-6.163v-9.537h15.88v9.537c0 2.241-0.822 4.43-2.328 6.163zM22.192 19.062v-3.191l0-9.53h-22.192v12.721c0 3.001 1.103 5.925 3.108 8.232 1.96 2.257 4.689 3.824 7.684 4.413l0.304 0.060 0.304-0.060c2.995-0.589 5.724-2.156 7.684-4.413 2.004-2.307 3.108-5.231 3.108-8.232h-0z"></path>
<path fill="#2c3238" d="M19.040 0v3.184h4.085l-2.461 2.461-0.030 0.008-10.958 10.958-3.296-3.295-3.23 3.23v2.516c0 0.605 0.061 1.205 0.179 1.794l3.052-3.052 3.296 3.296 8.387-8.387 0.011 0.010 7.319-7.319v4.124h3.161v-9.53h-9.515z"></path>
</svg>
