<!-- Generated by IcoMoon.io -->
<svg version="1.1" xmlns="http://www.w3.org/2000/svg" width="32" height="32" viewBox="0 0 32 32">
<title>apps</title>
<path fill="#2c3238" d="M6.667 5.333h-4v-2.667h4v2.667zM26.667 5.333h-10.667v-2.667h10.667v2.667zM9.333 2.667h4v2.667h-4v-2.667zM2.667 8h24l-0.003 6.66h2.669v-11.993c0-1.471-1.196-2.667-2.667-2.667h-24c-1.471 0-2.667 1.196-2.667 2.667v21.333c0 1.472 1.196 2.667 2.667 2.667h10.667v-2.667h-10.667v-16z"></path>
<path fill="#6a5aff" d="M24 29.074c-1.896-1.287-5.333-4.097-5.333-6.415 0-0.801 0.26-2.667 2.667-2.667 0.599 0 1.333 0.735 1.333 1.333 0 0.736 0.597 1.333 1.333 1.333s1.333-0.597 1.333-1.333c0-0.599 0.735-1.333 1.333-1.333 2.407 0 2.667 1.865 2.667 2.667 0 2.317-3.437 5.128-5.333 6.415zM26.667 17.326c-0.98 0-1.936 0.443-2.667 1.128-0.731-0.685-1.687-1.128-2.667-1.128-3.191 0-5.333 2.143-5.333 5.333 0 4.621 6.565 8.693 7.313 9.143 0.212 0.128 0.449 0.191 0.687 0.191s0.475-0.063 0.687-0.191c0.748-0.449 7.313-4.521 7.313-9.143 0-3.191-2.143-5.333-5.333-5.333z"></path>
</svg>
