<!-- Generated by IcoMoon.io -->
<svg version="1.1" xmlns="http://www.w3.org/2000/svg" width="32" height="32" viewBox="0 0 32 32">
<title>bag-dollar</title>
<path fill="#2c3238" d="M8.585 7.8v-1.3c0-2.15 1.751-3.9 3.902-3.9s3.902 1.75 3.902 3.9v1.3h-7.805zM22.89 8.992c-0.057-0.675-0.62-1.192-1.297-1.192h-2.602v-1.3c0-3.584-2.918-6.5-6.504-6.5s-6.504 2.916-6.504 6.5v1.3h-2.602c-0.676 0-1.24 0.517-1.297 1.192l-1.301 15.6c-0.030 0.361 0.094 0.722 0.339 0.988 0.247 0.268 0.593 0.42 0.957 0.42h16.911v-2.6h-15.497l1.084-13h1.405v3.9h2.602v-3.9h7.805v3.9h2.602v-3.9h1.405l0.217 2.6h2.609l-0.333-4.008z"></path>
<path fill="#38f" d="M28.097 22.1h-2.602c-0.717 0-1.301-0.582-1.301-1.3s0.584-1.3 1.301-1.3h5.203v-2.6h-2.602v-1.3h-2.602v1.3c-2.152 0-3.902 1.75-3.902 3.9s1.751 3.9 3.902 3.9h2.602c0.717 0 1.301 0.582 1.301 1.3s-0.584 1.3-1.301 1.3h-5.203v2.6h2.602v1.3h2.602v-1.3c2.152 0 3.902-1.75 3.902-3.9s-1.751-3.9-3.902-3.9z"></path>
</svg>
