<!-- Generated by IcoMoon.io -->
<svg version="1.1" xmlns="http://www.w3.org/2000/svg" width="32" height="32" viewBox="0 0 32 32">
<title>bag-dollar</title>
<path fill="#2c3238" d="M7.985 8v-1.333c0-2.205 1.796-4 4.003-4s4.003 1.795 4.003 4v1.333h-8.005zM22.657 9.223c-0.059-0.692-0.636-1.223-1.33-1.223h-2.668v-1.333c0-3.676-2.993-6.667-6.671-6.667s-6.671 2.991-6.671 6.667v1.333h-2.668c-0.694 0-1.271 0.531-1.33 1.223l-1.334 16c-0.031 0.371 0.096 0.74 0.348 1.013 0.254 0.275 0.608 0.431 0.982 0.431h17.344v-2.667h-15.894l1.111-13.333h1.441v4h2.668v-4h8.005v4h2.668v-4h1.441l0.223 2.667h2.676l-0.342-4.111z"></path>
<path fill="#6a5aff" d="M27.997 22.667h-2.668c-0.735 0-1.334-0.597-1.334-1.333s0.599-1.333 1.334-1.333h5.337v-2.667h-2.668v-1.333h-2.668v1.333c-2.207 0-4.003 1.795-4.003 4s1.796 4 4.003 4h2.668c0.735 0 1.334 0.597 1.334 1.333s-0.599 1.333-1.334 1.333h-5.337v2.667h2.668v1.333h2.668v-1.333c2.207 0 4.003-1.795 4.003-4s-1.796-4-4.003-4z"></path>
</svg>
