<!-- Generated by IcoMoon.io -->
<svg version="1.1" xmlns="http://www.w3.org/2000/svg" width="32" height="32" viewBox="0 0 32 32">
<title>bag-pencil</title>
<path fill="#2c3238" d="M7.68 7.133c0-2.095 1.723-3.8 3.84-3.8s3.84 1.705 3.84 3.8v1.267h-7.68v-1.267zM3.738 10.933h1.382v3.8h2.56v-3.8h7.68v3.8h2.56v-3.8h1.382l0.32 3.8h2.569l-0.435-5.172c-0.056-0.657-0.611-1.162-1.276-1.162h-2.56v-1.267c0-3.492-2.871-6.333-6.4-6.333s-6.4 2.841-6.4 6.333v1.267h-2.56c-0.666 0-1.22 0.504-1.276 1.162l-1.28 15.2c-0.029 0.352 0.092 0.703 0.334 0.963 0.243 0.261 0.584 0.409 0.942 0.409h10.24v-2.533h-8.849l1.066-12.667z"></path>
<path fill="#38f" d="M25.6 21.809l-2.030-2.009 2.030-2.009 2.030 2.009-2.030 2.009zM19.826 27.523l-2.706 0.67 0.676-2.679 3.964-3.923 2.030 2.009-3.964 3.923zM30.345 18.904l-3.84-3.8c-0.5-0.495-1.309-0.495-1.81 0l-8.96 8.867c-0.164 0.162-0.28 0.366-0.337 0.589l-1.28 5.067c-0.109 0.431 0.018 0.888 0.337 1.202 0.243 0.241 0.57 0.371 0.905 0.371 0.104 0 0.207-0.011 0.311-0.037l5.12-1.267c0.224-0.056 0.43-0.172 0.594-0.334l8.96-8.867c0.5-0.495 0.5-1.296 0-1.791z"></path>
</svg>
