<!-- Generated by IcoMoon.io -->
<svg version="1.1" xmlns="http://www.w3.org/2000/svg" width="32" height="32" viewBox="0 0 32 32">
<title>bag-house</title>
<path fill="#2c3238" d="M8 6.667c0-2.205 1.795-4 4-4s4 1.795 4 4v1.333h-8v-1.333zM3.893 10.667h1.44v4h2.667v-4h8v4h2.667v-4h1.44l0.333 4h2.676l-0.453-5.444c-0.059-0.692-0.635-1.223-1.329-1.223h-2.667v-1.333c0-3.676-2.991-6.667-6.667-6.667s-6.667 2.991-6.667 6.667v1.333h-2.667c-0.693 0-1.271 0.531-1.328 1.223l-1.333 16c-0.032 0.371 0.095 0.74 0.348 1.013 0.252 0.275 0.608 0.431 0.98 0.431h10.667v-2.667h-9.217l1.111-13.333z"></path>
<path fill="#2c3238" d="M25.333 29.313h-5.333v-5.333l-2.667 2.667v4c0 0.737 0.597 1.333 1.333 1.333h8c0.737 0 1.333-0.596 1.333-1.333v-4l-2.667-2.667v5.333z"></path>
<path fill="#6a5aff" d="M23.609 16.37c-0.521-0.521-1.364-0.521-1.885 0l-8 8 1.885 1.885 7.057-7.057 7.057 7.057 1.885-1.885-8-8z"></path>
</svg>
