<!-- Generated by IcoMoon.io -->
<svg version="1.1" xmlns="http://www.w3.org/2000/svg" width="32" height="32" viewBox="0 0 32 32">
<title>bag-gear</title>
<path fill="#2c3238" d="M8.48 7.2c0-2.117 1.723-3.84 3.84-3.84s3.84 1.723 3.84 3.84v1.28h-7.68v-1.28zM4.538 11.040h1.382v3.84h2.56v-3.84h7.68v2.56h2.56v-2.56h1.382l0.214 2.56h2.568l-0.328-3.946c-0.056-0.664-0.611-1.174-1.276-1.174h-2.56v-1.28c0-3.529-2.871-6.4-6.4-6.4s-6.4 2.871-6.4 6.4v1.28h-2.56c-0.666 0-1.22 0.509-1.276 1.174l-1.28 15.36c-0.028 0.356 0.092 0.71 0.334 0.973 0.243 0.264 0.584 0.413 0.942 0.413h11.52v-2.56h-10.129l1.066-12.8z"></path>
<path fill="#6a5aff" d="M23.84 26.4c-1.416 0-2.56-1.147-2.56-2.56s1.144-2.56 2.56-2.56c1.413 0 2.56 1.147 2.56 2.56s-1.147 2.56-2.56 2.56v0zM31.523 25.12v-2.56h-1.411c-0.166-0.817-0.493-1.573-0.938-2.245l1.004-1.004-1.81-1.81-1.005 1.005c-0.669-0.444-1.426-0.771-2.241-0.936v-1.411h-2.56v1.411c-0.815 0.165-1.572 0.492-2.244 0.936l-1.004-1.002-1.809 1.811 1.002 1.002c-0.445 0.669-0.771 1.427-0.937 2.243h-1.411v2.56h1.411c0.166 0.815 0.492 1.573 0.937 2.245l-1.002 1.004 1.811 1.809 1.001-1.004c0.672 0.445 1.43 0.771 2.245 0.937v1.411h2.56v-1.411c0.815-0.166 1.572-0.492 2.244-0.937l1.004 1.001 1.809-1.81-1.004-1.002c0.445-0.671 0.771-1.427 0.937-2.243h1.411z"></path>
</svg>
