<!-- Generated by IcoMoon.io -->
<svg version="1.1" xmlns="http://www.w3.org/2000/svg" width="32" height="32" viewBox="0 0 32 32">
<title>bag-star</title>
<path fill="#2c3238" d="M8 6.667c0-2.205 1.795-4 4-4s4 1.795 4 4v1.333h-8v-1.333zM3.893 10.667h1.44v4h2.667v-4h8v2.667h2.667v-2.667h1.44l0.223 2.667h2.675l-0.341-4.111c-0.059-0.692-0.636-1.223-1.329-1.223h-2.667v-1.333c0-3.676-2.991-6.667-6.667-6.667s-6.667 2.991-6.667 6.667v1.333h-2.667c-0.693 0-1.271 0.531-1.329 1.223l-1.333 16c-0.029 0.371 0.096 0.74 0.348 1.013 0.253 0.275 0.608 0.431 0.981 0.431h12v-2.667h-10.551l1.111-13.333z"></path>
<path fill="#6a5aff" d="M32 21.715h-5.715l-2.285-5.715-2.287 5.715h-5.713l4.944 4.172-2.659 6.113 5.715-3.78 5.713 3.78-2.657-6.113z"></path>
</svg>
