<!-- Generated by IcoMoon.io -->
<svg version="1.1" xmlns="http://www.w3.org/2000/svg" width="32" height="32" viewBox="0 0 32 32">
<title>blog</title>
<path fill="#38f" d="M22.857 3.385v4.343l-2.676-2.677c-0.532 0.395-1.035 0.806-1.475 1.246-4.197 4.197-3.643 7.547-2.098 9.096l-4.418 4.416v3.048l6.415-6.414c1.771 0.363 4.236-0.288 7.098-3.15 4.198-4.198 6.296-13.294 6.296-13.294s-4.881 1.132-9.143 3.386z"></path>
<path fill="#2c3238" d="M19.81 32h-16.762c-1.681 0-3.048-1.367-3.048-3.048v-16.762c0-1.679 1.367-3.048 3.048-3.048h9.143v3.048h-9.143v16.762h16.762v-9.143h3.048v9.143c0 1.681-1.367 3.048-3.048 3.048z"></path>
</svg>
