<!-- Generated by IcoMoon.io -->
<svg version="1.1" xmlns="http://www.w3.org/2000/svg" width="32" height="32" viewBox="0 0 32 32">
<title>book-heart</title>
<path fill="#2c3238" d="M5.333 24h-2.667v-21.333h2.667v21.333zM13.333 24h-5.333v-21.333h13.333v11.992h2.667v-13.325c0-0.736-0.597-1.333-1.333-1.333h-21.333c-0.736 0-1.333 0.597-1.333 1.333v24c0 0.736 0.597 1.333 1.333 1.333h12v-2.667z"></path>
<path fill="#38f" d="M21.333 20c-2.407 0-2.667 1.864-2.667 2.667 0 2.317 3.437 5.128 5.333 6.415 1.896-1.287 5.333-4.097 5.333-6.415 0-0.803-0.26-2.667-2.667-2.667-0.599 0-1.333 0.735-1.333 1.333 0 0.736-0.597 1.333-1.333 1.333s-1.333-0.597-1.333-1.333c0-0.599-0.735-1.333-1.333-1.333zM24 32c-0.237 0-0.475-0.063-0.687-0.189-0.748-0.449-7.313-4.523-7.313-9.144 0-3.191 2.143-5.333 5.333-5.333 0.98 0 1.936 0.443 2.667 1.128 0.731-0.685 1.687-1.128 2.667-1.128 3.191 0 5.333 2.143 5.333 5.333 0 4.621-6.565 8.695-7.313 9.144-0.212 0.127-0.449 0.189-0.687 0.189z"></path>
</svg>
