<!-- Generated by IcoMoon.io -->
<svg version="1.1" xmlns="http://www.w3.org/2000/svg" width="32" height="32" viewBox="0 0 32 32">
<title>box-gear</title>
<path fill="#2c3238" d="M7.885 3.334h4.435v5.067h-7.849l3.414-5.067zM22.728 8.401h-7.848v-5.067h4.435l3.412 5.067zM3.36 10.934h20.48v2.526h2.56v-3.792c0-0.008-0.005-0.015-0.005-0.023-0.003-0.147-0.033-0.291-0.087-0.429-0.014-0.035-0.033-0.067-0.050-0.101-0.024-0.049-0.041-0.103-0.073-0.149l-5.12-7.6c-0.238-0.352-0.637-0.564-1.065-0.564h-12.8c-0.429 0-0.828 0.212-1.065 0.564l-5.12 7.6c-0.032 0.047-0.049 0.1-0.073 0.149-0.017 0.034-0.036 0.066-0.050 0.101-0.054 0.138-0.084 0.282-0.087 0.429-0.001 0.008-0.005 0.015-0.005 0.023v15.2c0 0.699 0.573 1.267 1.28 1.267h11.52v-2.533h-10.24v-12.667z"></path>
<path fill="#6a5aff" d="M23.84 26.127c-1.416 0-2.56-1.135-2.56-2.533s1.144-2.533 2.56-2.533c1.413 0 2.56 1.135 2.56 2.533s-1.147 2.533-2.56 2.533v0zM31.523 24.86v-2.533h-1.411c-0.166-0.808-0.493-1.557-0.938-2.222l1.004-0.993-1.81-1.791-1.005 0.994c-0.669-0.441-1.426-0.763-2.241-0.927v-1.395h-2.56v1.395c-0.815 0.165-1.572 0.486-2.244 0.927l-1.002-0.992-1.81 1.79 1.002 0.993c-0.445 0.664-0.771 1.414-0.937 2.22h-1.411v2.533h1.411c0.166 0.807 0.492 1.557 0.937 2.22l-1.002 0.996 1.811 1.789 1.001-0.993c0.672 0.441 1.43 0.763 2.245 0.927v1.396h2.56v-1.396c0.815-0.165 1.572-0.488 2.244-0.927l1.004 0.991 1.809-1.792-1.004-0.992c0.445-0.662 0.771-1.411 0.937-2.218h1.411z"></path>
</svg>
