<!-- Generated by IcoMoon.io -->
<svg version="1.1" xmlns="http://www.w3.org/2000/svg" width="32" height="32" viewBox="0 0 32 32">
<title>box</title>
<path fill="#2c3238" d="M17.52 26.609v-11.904l10.64-4.741v11.904l-10.64 4.741zM3.84 9.964l10.64 4.741v11.904l-10.64-4.741v-11.904zM16 12.047l-9.938-4.427 3.478-1.551 9.938 4.43-3.478 1.548zM16 3.192l9.938 4.428-2.718 1.21-9.938-4.427 2.718-1.211zM30.297 6.228l-13.68-6.095c-0.392-0.175-0.842-0.175-1.234 0l-13.68 6.095c-0.549 0.244-0.903 0.791-0.903 1.393v15.238c0 0.602 0.354 1.147 0.903 1.391l13.68 6.095c0.196 0.088 0.407 0.133 0.617 0.133s0.421-0.044 0.617-0.133l13.68-6.095c0.549-0.244 0.903-0.789 0.903-1.391v-15.238c0-0.602-0.354-1.149-0.903-1.393v0z"></path>
<path fill="#6a5aff" d="M23.228 8.832l-3.732 1.676-9.957-4.438 3.749-1.663z"></path>
</svg>
