<!-- Generated by IcoMoon.io -->
<svg version="1.1" xmlns="http://www.w3.org/2000/svg" width="32" height="32" viewBox="0 0 32 32">
<title>broadcast</title>
<path fill="#2c3238" d="M15.629 10.917c-1.727 0-3.126 1.395-3.126 3.114 0 1.149 0.631 2.142 1.563 2.683v12.886h3.126v-12.886c0.93-0.54 1.563-1.535 1.563-2.683 0-1.719-1.4-3.114-3.126-3.114z"></path>
<path fill="#2c3238" d="M6.787 5.223l-2.21-2.201c-6.094 6.070-6.094 15.949 0 22.019l2.21-2.203c-4.875-4.856-4.875-12.757 0-17.615z"></path>
<path fill="#2c3238" d="M26.679 3.022l-2.21 2.201c2.362 2.352 3.663 5.48 3.663 8.807s-1.302 6.455-3.663 8.807l2.21 2.201c2.952-2.941 4.579-6.849 4.579-11.009 0-4.158-1.627-8.068-4.579-11.009z"></path>
<path fill="#38f" d="M8.999 7.426c-1.771 1.764-2.748 4.11-2.748 6.606 0 2.494 0.977 4.84 2.748 6.606l2.21-2.205c-1.182-1.174-1.832-2.739-1.832-4.401 0-1.664 0.65-3.227 1.832-4.401l-2.21-2.205z"></path>
<path fill="#38f" d="M22.259 7.426l-2.21 2.205c1.182 1.174 1.832 2.737 1.832 4.401 0 1.663-0.65 3.227-1.832 4.401l2.21 2.205c1.771-1.766 2.748-4.112 2.748-6.606 0-2.496-0.977-4.842-2.748-6.606z"></path>
</svg>
