<!-- Generated by IcoMoon.io -->
<svg version="1.1" xmlns="http://www.w3.org/2000/svg" width="32" height="32" viewBox="0 0 32 32">
<title>cart-channels</title>
<path fill="#2c3238" d="M4.912 12.32h17.109l-0.562 2.56h2.594l0.562-2.56h1.518v-2.56h-4.332l-4.701-8.315-2.2 1.27 3.984 7.045h-10.834l3.984-7.045-2.2-1.27-4.702 8.315h-4.332v2.56h1.519l2.312 10.518c0.129 0.586 0.643 1.002 1.236 1.002h7.6v-2.56h-6.583l-1.971-8.96z"></path>
<path fill="#38f" d="M28.033 25.12c-1.029 0-1.937 0.507-2.516 1.277l-3.245-1.312c0.038-0.196 0.061-0.398 0.061-0.605s-0.023-0.41-0.061-0.605l3.245-1.312c0.579 0.771 1.487 1.277 2.516 1.277 1.745 0 3.167-1.436 3.167-3.2s-1.421-3.2-3.167-3.2c-1.746 0-3.167 1.436-3.167 3.2 0 0.038 0.010 0.076 0.011 0.114l-3.523 1.423c-0.57-0.553-1.339-0.897-2.189-0.897-1.745 0-3.167 1.436-3.167 3.2s1.421 3.2 3.167 3.2c0.85 0 1.619-0.344 2.189-0.897l3.523 1.423c-0.001 0.040-0.011 0.076-0.011 0.114 0 1.764 1.421 3.2 3.167 3.2s3.167-1.436 3.167-3.2-1.421-3.2-3.167-3.2z"></path>
</svg>
