<!-- Generated by IcoMoon.io -->
<svg version="1.1" xmlns="http://www.w3.org/2000/svg" width="32" height="32" viewBox="0 0 32 32">
<title>cart-gear</title>
<path fill="#38f" d="M10.667 26.667c-1.472 0-2.667 1.195-2.667 2.667 0 1.475 1.195 2.667 2.667 2.667s2.667-1.192 2.667-2.667c0-1.472-1.195-2.667-2.667-2.667z"></path>
<path fill="#38f" d="M21.333 26.667c-1.472 0-2.667 1.195-2.667 2.667 0 1.475 1.195 2.667 2.667 2.667s2.667-1.192 2.667-2.667c0-1.472-1.195-2.667-2.667-2.667z"></path>
<path fill="#2c3238" d="M26.667 5.332c-0.621 0-1.16 0.428-1.3 1.033l-1.3 5.635h-6.733v2.667h6.119l-1.845 8h-11.232l-1.333-5.333h-2.749l1.748 6.991c0.148 0.592 0.681 1.009 1.293 1.009h13.333c0.621 0 1.16-0.428 1.3-1.033l3.76-16.301h4.273v-2.667h-5.333z"></path>
<path fill="#38f" d="M5.333 8c0-1.472 1.193-2.667 2.667-2.667 1.472 0 2.667 1.195 2.667 2.667s-1.195 2.667-2.667 2.667c-1.473 0-2.667-1.195-2.667-2.667zM6.669 16.001h2.667v-1.469c0.849-0.173 1.637-0.512 2.337-0.976l1.045 1.043 1.884-1.885-1.045-1.044c0.464-0.699 0.803-1.487 0.976-2.336h1.469v-2.667h-1.469c-0.173-0.851-0.513-1.639-0.977-2.339l1.045-1.045-1.885-1.885-1.047 1.047c-0.697-0.463-1.485-0.803-2.335-0.976v-1.468h-2.667v1.468c-0.849 0.173-1.639 0.513-2.337 0.976l-1.045-1.044-1.884 1.887 1.044 1.044c-0.464 0.697-0.803 1.487-0.976 2.336h-1.469v2.667h1.469c0.173 0.849 0.512 1.639 0.976 2.339l-1.044 1.045 1.887 1.884 1.044-1.045c0.699 0.464 1.488 0.803 2.337 0.976v1.469z"></path>
</svg>
