<!-- Generated by IcoMoon.io -->
<svg version="1.1" xmlns="http://www.w3.org/2000/svg" width="32" height="32" viewBox="0 0 32 32">
<title>chat</title>
<path fill="#2c3238" d="M8.264 26.133v5.333l7.111-5.333h11.556c1.471 0 2.667-1.196 2.667-2.667v-16c0-1.472-1.196-2.667-2.667-2.667h-21.333c-1.471 0-2.667 1.195-2.667 2.667v16c0 1.471 1.196 2.667 2.667 2.667h2.667zM5.598 23.467v-16h21.333v16h-12.444l-3.556 2.667v-2.667h-5.333z"></path>
<path fill="#2c3238" d="M8.264 10.133h16v2.667h-16v-2.667z"></path>
<path fill="#38f" d="M8.264 14.133h16v2.667h-16v-2.667z"></path>
<path fill="#38f" d="M8.264 18.133h10.667v2.667h-10.667v-2.667z"></path>
</svg>
