<!-- Generated by IcoMoon.io -->
<svg version="1.1" xmlns="http://www.w3.org/2000/svg" width="32" height="32" viewBox="0 0 32 32">
<title>chat</title>
<path fill="#2c3238" d="M8.264 31.467v-5.333h-2.667c-1.471 0-2.667-1.196-2.667-2.667v-16c0-1.472 1.196-2.667 2.667-2.667h21.333c1.471 0 2.667 1.195 2.667 2.667v16c0 1.471-1.196 2.667-2.667 2.667h-11.556l-7.111 5.333zM5.597 7.467v16h5.333v2.667l3.556-2.667h12.444v-16h-21.333z"></path>
<path fill="#2c3238" d="M8.264 10.133h16v2.667h-16v-2.667z"></path>
<path fill="#6a5aff" d="M8.264 14.133h16v2.667h-16v-2.667z"></path>
<path fill="#6a5aff" d="M8.264 18.133h10.667v2.667h-10.667v-2.667z"></path>
</svg>
