<!-- Generated by IcoMoon.io -->
<svg version="1.1" xmlns="http://www.w3.org/2000/svg" width="32" height="32" viewBox="0 0 32 32">
<title>chat-smile</title>
<path fill="#2c3238" d="M3.2 3.2v19.2h6.4v3.2l4.267-3.2h14.933v-19.2h-25.6zM6.4 32v-6.4h-3.2c-1.765 0-3.2-1.435-3.2-3.2v-19.2c0-1.765 1.435-3.2 3.2-3.2h25.6c1.765 0 3.2 1.435 3.2 3.2v19.2c0 1.765-1.435 3.2-3.2 3.2h-13.867l-8.533 6.4z"></path>
<path fill="#38f" d="M8.675 14.4c1.235 2.822 4.045 4.8 7.325 4.8s6.090-1.978 7.325-4.8h-14.65z"></path>
<path fill="#38f" d="M13.2 8.4c0 1.104-0.896 2-2 2s-2-0.896-2-2c0-1.104 0.896-2 2-2s2 0.896 2 2z"></path>
<path fill="#38f" d="M22.8 8.4c0 1.104-0.896 2-2 2s-2-0.896-2-2c0-1.104 0.896-2 2-2s2 0.896 2 2z"></path>
</svg>
