<!-- Generated by IcoMoon.io -->
<svg version="1.1" xmlns="http://www.w3.org/2000/svg" width="32" height="32" viewBox="0 0 32 32">
<title>chat-clock</title>
<path fill="#2c3238" d="M20 21.333v2.667h-9.777l-3.556 2.667v-2.667h-4v-12h8v-2.667h-8c-1.471 0-2.667 1.196-2.667 2.667v12c0 1.471 1.196 2.667 2.667 2.667h1.333v5.333l7.111-5.333h8.889c1.471 0 2.667-1.196 2.667-2.667v-2.667h-2.667z"></path>
<path fill="#38f" d="M22.667 2.667c-3.676 0-6.667 2.991-6.667 6.667s2.991 6.667 6.667 6.667c3.676 0 6.667-2.991 6.667-6.667s-2.991-6.667-6.667-6.667zM22.667 18.667c-5.147 0-9.333-4.187-9.333-9.333s4.187-9.333 9.333-9.333c5.147 0 9.333 4.187 9.333 9.333s-4.187 9.333-9.333 9.333z"></path>
<path fill="#2c3238" d="M26.667 10.667h-5.333v-6.667h2.667v4h2.667v2.667z"></path>
</svg>
