<!-- Generated by IcoMoon.io -->
<svg version="1.1" xmlns="http://www.w3.org/2000/svg" width="32" height="32" viewBox="0 0 32 32">
<title>chat-pencil</title>
<path fill="#2c3238" d="M20 18.667v5.312h-9.777l-3.556 2.667v-2.667h-4v-12h10.667v-2.645l0.024-0.021h-10.691c-1.471 0-2.667 1.196-2.667 2.667v12c0 1.471 1.196 2.667 2.667 2.667h1.333v5.333l7.111-5.333h8.889c1.471 0 2.667-1.196 2.667-2.667v-5.312h-2.667z"></path>
<path fill="#38f" d="M26.667 7.448l-2.115-2.115 2.115-2.116 2.115 2.116-2.115 2.115zM20.651 13.462l-2.82 0.707 0.707-2.82 4.129-4.131 2.113 2.116-4.129 4.128zM27.61 0.39c-0.521-0.52-1.364-0.52-1.885 0l-9.333 9.333c-0.169 0.171-0.292 0.387-0.351 0.62l-1.333 5.333c-0.113 0.456 0.020 0.936 0.352 1.268 0.329 0.328 0.811 0.463 1.265 0.349l5.333-1.333c0.235-0.059 0.448-0.181 0.62-0.349l9.333-9.333c0.52-0.523 0.52-1.365 0-1.887l-4.001-4.001z"></path>
</svg>
