<!-- Generated by IcoMoon.io -->
<svg version="1.1" xmlns="http://www.w3.org/2000/svg" width="32" height="32" viewBox="0 0 32 32">
<title>coin-tossed</title>
<path fill="#38f" d="M24.867 3.361c2.095 0 3.8 1.723 3.8 3.84s-1.705 3.84-3.8 3.84c-2.095 0-3.8-1.723-3.8-3.84s1.705-3.84 3.8-3.84zM24.867 13.601c3.492 0 6.333-2.871 6.333-6.4s-2.841-6.4-6.333-6.4c-3.492 0-6.333 2.871-6.333 6.4s2.841 6.4 6.333 6.4z"></path>
<path fill="#2c3238" d="M17.252 28.868l-8.851-3.355v-5.87l5.691-1.917 0.367 0.742-1.887 1.908c-0.269 0.27-0.403 0.649-0.365 1.030 0.037 0.381 0.242 0.726 0.557 0.938l3.8 2.56c0.309 0.209 0.693 0.27 1.051 0.166l8.15-2.353 1.914 1.934-10.427 4.215zM3.334 18.72h2.533v7.68h-2.533v-7.68zM27.029 20.377c-0.326-0.33-0.801-0.453-1.244-0.326l-8.303 2.397-2.027-1.366 1.44-1.455c0.385-0.39 0.481-0.986 0.237-1.478l-1.267-2.56c-0.281-0.57-0.934-0.844-1.534-0.641l-6.026 2.029c-0.185-0.476-0.637-0.815-1.173-0.815h-5.067c-0.7 0-1.267 0.573-1.267 1.28v10.24c0 0.708 0.566 1.28 1.267 1.28h5.067c0.513 0 0.951-0.311 1.15-0.756l8.539 3.235c0.143 0.055 0.294 0.082 0.445 0.082 0.16 0 0.319-0.031 0.47-0.091l12.667-5.12c0.395-0.16 0.685-0.509 0.77-0.932 0.086-0.421-0.043-0.858-0.345-1.161l-3.8-3.84z"></path>
</svg>
