<!-- Generated by IcoMoon.io -->
<svg version="1.1" xmlns="http://www.w3.org/2000/svg" width="32" height="32" viewBox="0 0 32 32">
<title>document-search</title>
<path fill="#2c3238" d="M5.333 24h-2.667v-21.333h2.667v21.333zM12 24h-4v-21.333h13.333v9.333h2.667v-10.667c0-0.736-0.597-1.333-1.333-1.333h-21.333c-0.736 0-1.333 0.597-1.333 1.333v24c0 0.736 0.597 1.333 1.333 1.333h10.667v-2.667z"></path>
<path fill="#6a5aff" d="M17.333 21.333c0-2.205 1.795-4 4-4s4 1.795 4 4c0 2.205-1.795 4-4 4s-4-1.795-4-4v0zM31.219 29.333l-4.329-4.329c0.699-1.055 1.111-2.313 1.111-3.671 0-3.676-2.991-6.667-6.667-6.667s-6.667 2.991-6.667 6.667c0 3.676 2.991 6.667 6.667 6.667 1.357 0 2.617-0.412 3.671-1.111l4.329 4.329 1.885-1.885z"></path>
</svg>
