<!-- Generated by IcoMoon.io -->
<svg version="1.1" xmlns="http://www.w3.org/2000/svg" width="32" height="32" viewBox="0 0 32 32">
<title>document</title>
<path fill="#2c3238" d="M10.48 9.714h11.84v-2.971h-11.84v2.971z"></path>
<path fill="#38f" d="M10.48 14.171h11.84v-2.971h-11.84v2.971z"></path>
<path fill="#38f" d="M28.24 17.143h-2.96v-13.371h-17.76v13.371h-2.96v-16.343h23.68v16.343z"></path>
<path fill="#2c3238" d="M4.56 29.029h23.68v-5.943h-5.307l-2.526 2.536c-0.278 0.279-0.654 0.435-1.046 0.435h-5.92c-0.392 0-0.768-0.156-1.046-0.435l-2.526-2.536h-5.307v5.943zM29.72 32h-26.64c-0.817 0-1.48-0.666-1.48-1.486v-8.914c0-0.82 0.663-1.486 1.48-1.486h7.4c0.392 0 0.768 0.157 1.046 0.435l2.526 2.536h4.695l2.526-2.536c0.278-0.278 0.654-0.435 1.046-0.435h7.4c0.817 0 1.48 0.666 1.48 1.486v8.914c0 0.82-0.663 1.486-1.48 1.486z"></path>
</svg>
