<!-- Generated by IcoMoon.io -->
<svg version="1.1" xmlns="http://www.w3.org/2000/svg" width="32" height="32" viewBox="0 0 32 32">
<title>faq</title>
<path fill="#2c3238" d="M30.667 0h-12c-0.353 0-0.692 0.14-0.943 0.391l-1.724 1.724-1.724-1.724c-0.251-0.251-0.589-0.391-0.943-0.391h-12c-0.736 0-1.333 0.597-1.333 1.333v21.333c0 0.737 0.597 1.333 1.333 1.333h5.333v-2.667h-4v-18.667h10.115l1.885 1.885v2.115h2.667v-2.115l1.885-1.885h10.115v20h2.667v-21.333c0-0.736-0.597-1.333-1.333-1.333z"></path>
<path fill="#2c3238" d="M18.667 26.667c-3.676 0-6.667-2.991-6.667-6.667s2.991-6.667 6.667-6.667c3.676 0 6.667 2.991 6.667 6.667s-2.991 6.667-6.667 6.667zM28 20c0-5.145-4.187-9.333-9.333-9.333s-9.333 4.188-9.333 9.333c0 5.147 4.187 9.333 9.333 9.333 2.433 0 4.644-0.943 6.308-2.473l4.359 4.359 1.885-1.885-4.552-4.551c0.841-1.401 1.333-3.033 1.333-4.783z"></path>
<path fill="#38f" d="M21.667 16h-6c-0.553 0-1 0.448-1 1v3h2v-2h1v4h-2v2h6v-2h-2v-4h1v2h2v-3c0-0.552-0.447-1-1-1z"></path>
<path fill="#38f" d="M26.667 4h-5.333v2.667h5.333v-2.667z"></path>
<path fill="#38f" d="M10.667 4h-5.333v2.667h5.333v-2.667z"></path>
<path fill="#38f" d="M5.333 12h5.333v-2.667h-5.333v2.667z"></path>
<path fill="#38f" d="M5.333 17.333h2.667v-2.667h-2.667v2.667z"></path>
<path fill="#38f" d="M26.667 8h-2.667v2.667h2.667v-2.667z"></path>
</svg>
