<!-- Generated by IcoMoon.io -->
<svg version="1.1" xmlns="http://www.w3.org/2000/svg" width="32" height="32" viewBox="0 0 32 32">
<title>gears</title>
<path fill="#2c3238" d="M28.361 19.2h-3.322c-1.322 3.723-4.869 6.4-9.040 6.4-5.293 0-9.6-4.306-9.6-9.6 0-4.17 2.678-7.717 6.4-9.040v-3.322c-1.438 0.374-2.792 0.963-3.989 1.779l-2.427-2.429-3.394 3.394 2.427 2.429c-0.818 1.198-1.422 2.547-1.795 3.989h-3.622v6.4h3.622c0.373 1.443 0.978 2.79 1.795 3.989l-2.427 2.429 3.394 3.394 2.427-2.427c1.198 0.816 2.547 1.421 3.989 1.795v3.621h6.4v-3.621c1.443-0.374 2.79-0.979 3.99-1.795l2.427 2.427 3.394-3.394-2.427-2.429c0.814-1.197 1.405-2.55 1.778-3.989z"></path>
<path fill="#38f" d="M24 11.2c-1.77 0-3.2-1.434-3.2-3.2s1.43-3.2 3.2-3.2c1.77 0 3.2 1.434 3.2 3.2s-1.43 3.2-3.2 3.2zM32 9.454v-2.909h-2.387c-0.13-0.499-0.325-0.966-0.574-1.403l1.507-1.507-2.182-2.181-1.507 1.507c-0.435-0.251-0.902-0.445-1.403-0.574v-2.387h-2.907v2.387c-0.499 0.13-0.966 0.323-1.402 0.574l-1.507-1.507-2.184 2.181 1.509 1.507c-0.25 0.437-0.445 0.904-0.576 1.403h-2.386v2.909h2.386c0.131 0.499 0.326 0.966 0.576 1.403l-1.509 1.507 2.184 2.181 1.507-1.506c0.435 0.25 0.902 0.443 1.402 0.573v2.387h2.907v-2.387c0.501-0.13 0.968-0.323 1.403-0.573l1.507 1.506 2.182-2.181-1.507-1.507c0.25-0.437 0.445-0.904 0.574-1.403h2.387z"></path>
</svg>
