<!-- Generated by IcoMoon.io -->
<svg version="1.1" xmlns="http://www.w3.org/2000/svg" width="32" height="32" viewBox="0 0 32 32">
<title>graduation</title>
<path fill="#2c3238" d="M30.196 10.808l-13.333-6.667c-0.375-0.188-0.817-0.188-1.193 0l-13.333 6.667c-0.267 0.132-0.472 0.364-0.593 0.616-0.080 0.163-0.143 0.44-0.143 0.576v7.687c0 0.735 0.597 1.333 1.333 1.333s1.333-0.599 1.333-1.333v-5.716l2.667 1.067v6.539c0 0.504 0.285 0.965 0.737 1.192 0.222 0.111 0.444 0.224 0.668 0.338 2.095 1.066 4.362 2.221 7.928 2.221 3.568 0 5.837-1.156 7.932-2.223 0.223-0.114 0.444-0.226 0.664-0.336 0.452-0.228 0.737-0.688 0.737-1.193v-6.539l4.496-1.799c0.487-0.195 0.815-0.657 0.836-1.183 0.023-0.524-0.267-1.011-0.736-1.247zM22.933 20.751l-1.3 0.649c-3.361 1.681-7.373 1.681-10.733 0l-1.3-0.649v-4.647l6.171 2.469c0.16 0.064 0.328 0.093 0.496 0.093s0.336-0.029 0.496-0.095l6.171-2.469v4.648zM6.185 11.864l10.081-5.039 10.081 5.039-10.081 4.033-10.081-4.033z"></path>
<path fill="#38f" d="M2.933 22.667c-0.736 0-1.333 0.597-1.333 1.333v2.667c0 0.737 0.597 1.333 1.333 1.333s1.333-0.596 1.333-1.333v-2.667c0-0.736-0.597-1.333-1.333-1.333z"></path>
</svg>
