<?xml version="1.0" encoding="UTF-8"?>
<svg width="60px" height="60px" viewBox="0 0 60 60" version="1.1" xmlns="http://www.w3.org/2000/svg" xmlns:xlink="http://www.w3.org/1999/xlink">
    <!-- Generator: Sketch 49.2 (51160) - http://www.bohemiancoding.com/sketch -->
    <title>Artboard</title>
    <desc>Created with Sketch.</desc>
    <defs>
        <path d="M14.7906631,8.8251425 L14.7906631,5.89851615 C14.7906631,4.19400281 13.4257148,2.80734335 11.7478894,2.80734335 C10.0702801,2.80734335 8.70511574,4.19400281 8.70511574,5.89851615 L8.70511574,8.8251425 L13.499094,8.8251425 L13.499094,11.804364 L3.22816635,11.804364 L4.07086038,23.6907378 L4.15642624,23.6907378 L19.1769071,23.6907378 L19.262473,23.6907378 L20.105167,11.804364 L12.0715369,11.804364 L12.0715369,8.8251425 L14.7906631,8.8251425 Z M17.5540513,8.8251425 L23.3333333,8.8251425 L22.0954374,23.9376892 C21.9718423,25.4657146 20.7129871,26.6666667 19.1769071,26.6666667 L4.15642624,26.6666667 C2.62034628,26.6666667 1.36127497,25.4657146 1.23659947,23.9368112 L0,8.8251425 L5.94172755,8.8251425 L5.94172755,5.89851615 C5.94172755,2.64600177 8.5465164,8.8817842e-16 11.7478894,8.8817842e-16 C14.9494785,8.8817842e-16 17.5540513,2.64600177 17.5540513,5.89851615 L17.5540513,8.8251425 Z" id="path-1"></path>
    </defs>
    <g id="Artboard" stroke="none" stroke-width="1" fill="none" fill-rule="evenodd">
        <rect id="Rectangle-16" fill="#06AAF5" x="0" y="0" width="60" height="60" rx="10"></rect>
        <g id="Icon-/-Store" transform="translate(10.000000, 10.000000)">
            <g id="Frame_-_24px">
                <rect id="Rectangle-path" x="0" y="0" width="40" height="40"></rect>
            </g>
            <g id="Filled_Icons" transform="translate(8.333333, 6.666667)">
                <mask id="mask-2" fill="white">
                    <use xlink:href="#path-1"></use>
                </mask>
                <use id="Combined-Shape" fill="#2C3238" xlink:href="#path-1"></use>
                <g id="Color-/-color-white" mask="url(#mask-2)" fill="#FFFFFF">
                    <g transform="translate(-28.333333, -28.333333)">
                        <rect x="0" y="0" width="83.3333333" height="83.3333333"></rect>
                    </g>
                </g>
            </g>
        </g>
    </g>
</svg>