<!-- Generated by IcoMoon.io -->
<svg version="1.1" xmlns="http://www.w3.org/2000/svg" width="32" height="32" viewBox="0 0 32 32">
<title>id-card</title>
<path fill="#38f" d="M4.8 24c0-2.946 1.854-4.8 4.8-4.8s4.8 1.854 4.8 4.8h-9.6z"></path>
<path fill="#38f" d="M12.8 14.4c0 1.766-1.434 3.2-3.2 3.2s-3.2-1.434-3.2-3.2c0-1.766 1.434-3.2 3.2-3.2s3.2 1.434 3.2 3.2z"></path>
<path fill="#2c3238" d="M27.2 17.6h-9.6v-3.2h9.6v3.2z"></path>
<path fill="#2c3238" d="M27.2 24h-9.6v-3.2h9.6v3.2z"></path>
<path fill="#2c3238" d="M3.2 27.2v-19.2h8.296c0.662 1.859 2.421 3.2 4.504 3.2s3.842-1.341 4.504-3.2h8.296l0.002 19.2h-25.602zM16 4.8c0.882 0 1.6 0.718 1.6 1.6s-0.718 1.6-1.6 1.6c-0.882 0-1.6-0.718-1.6-1.6s0.718-1.6 1.6-1.6zM28.8 4.8h-8.296c-0.662-1.859-2.421-3.2-4.504-3.2s-3.842 1.341-4.504 3.2h-8.296c-1.765 0-3.2 1.434-3.2 3.2v19.2c0 1.765 1.435 3.2 3.2 3.2h25.6c1.765 0 3.2-1.435 3.2-3.2v-19.2c0-1.766-1.435-3.2-3.2-3.2z"></path>
</svg>
