<!-- Generated by IcoMoon.io -->
<svg version="1.1" xmlns="http://www.w3.org/2000/svg" width="32" height="32" viewBox="0 0 32 32">
<title>laptop-arrow</title>
<path fill="#6a5aff" d="M21.933 6.276l-6.333-6.276-6.333 6.276 1.902 1.885 3.085-3.057v11.448h2.691v-11.448l3.085 3.057z"></path>
<path fill="#2c3238" d="M4.013 29.333l1.793-5.333h19.588l1.794 5.333h-23.175zM29.906 28.98l-2.197-6.531v-11.783c0-0.736-0.601-1.333-1.345-1.333h-4.036v2.667h2.691v9.333h-18.836v-9.333h2.691v-2.667h-4.036c-0.743 0-1.345 0.597-1.345 1.333v11.783l-2.196 6.529c-0.25 0.744-0.148 1.507 0.28 2.096 0.426 0.588 1.125 0.925 1.916 0.925h24.218c0.791 0 1.489-0.337 1.917-0.925 0.428-0.589 0.53-1.352 0.28-2.095v0z"></path>
<path fill="#6a5aff" d="M18.291 28h-5.382v-2.667h5.382z"></path>
</svg>
