<!-- Generated by IcoMoon.io -->
<svg version="1.1" xmlns="http://www.w3.org/2000/svg" width="32" height="32" viewBox="0 0 32 32">
<title>letter-send</title>
<path fill="#2c3238" d="M18.535 28.64h-15.201v-9.033l6.863 4.955c0.22 0.159 0.479 0.238 0.737 0.238 0.257 0 0.516-0.079 0.736-0.238l6.864-4.955 0.001 9.033zM10.934 21.947l-4.915-3.547h6.181v-2.56h-8.867c-1.397 0-2.533 1.148-2.533 2.56v10.24c0 1.412 1.136 2.56 2.533 2.56h15.2c1.397 0 2.533-1.148 2.533-2.56v-10.24h-5.22l-4.913 3.547z"></path>
<path fill="#6a5aff" d="M24.867 13.261h-5.067v-5.12l-2.533 2.56v3.84c0 0.708 0.567 1.28 1.267 1.28h7.6c0.699 0 1.267-0.572 1.267-1.28v-3.84l-2.533-2.56v5.12z"></path>
<path fill="#2c3238" d="M29.038 10.326l-6.704-6.775-6.704 6.775-1.791-1.811 7.6-7.68c0.495-0.499 1.296-0.499 1.791 0l7.6 7.68-1.791 1.811z"></path>
</svg>
