<!-- Generated by IcoMoon.io -->
<svg version="1.1" xmlns="http://www.w3.org/2000/svg" width="32" height="32" viewBox="0 0 32 32">
<title>letter-signal</title>
<path fill="#38f" d="M19.56 10.667c1.458 0 2.64-1.194 2.64-2.667s-1.182-2.667-2.64-2.667c-1.458 0-2.64 1.194-2.64 2.667s1.182 2.667 2.64 2.667z"></path>
<path fill="#2c3238" d="M19.56 2.667c2.912 0 5.28 2.392 5.28 5.333h2.64c0-4.412-3.552-8-7.92-8s-7.92 3.588-7.92 8h2.64c0-2.941 2.368-5.333 5.28-5.333z"></path>
<path fill="#38f" d="M18.209 9.407h2.667v7.488h-2.667v-7.488z"></path>
<path fill="#2c3238" d="M5.040 29.333v-10.428l9.86 6.225c0.214 0.135 0.457 0.203 0.7 0.203s0.486-0.068 0.7-0.203l9.86-6.225 0.001 10.428h-21.121zM23.669 17.333l-8.069 5.095-8.069-5.095h16.138zM26.16 14.667h-21.12c-1.456 0-2.64 1.196-2.64 2.667v12c0 1.471 1.184 2.667 2.64 2.667h21.12c1.456 0 2.64-1.196 2.64-2.667v-12c0-1.471-1.184-2.667-2.64-2.667z"></path>
</svg>
