<!-- Generated by IcoMoon.io -->
<svg version="1.1" xmlns="http://www.w3.org/2000/svg" width="19" height="32" viewBox="0 0 19 32">
<title>mobile</title>
<path fill="#2c3238" d="M3.198 28.8v-3.2h12.802v3.2h-12.802zM16 9.6v12.8h-12.802v-12.8h12.802zM15.998 6.4h-12.8v-3.2h12.8v3.2zM15.998 0h-12.8c-1.765 0-3.2 1.435-3.2 3.2v25.6c0 1.765 1.435 3.2 3.2 3.2h12.8c1.765 0 3.2-1.435 3.2-3.2v-25.6c0-1.765-1.435-3.2-3.2-3.2v0z"></path>
<path fill="#6a5aff" d="M0 6.4h19.2v3.2h-19.2v-3.2z"></path>
<path fill="#6a5aff" d="M0 22.4h19.2v3.2h-19.2v-3.2z"></path>
</svg>
