<!-- Generated by IcoMoon.io -->
<svg version="1.1" xmlns="http://www.w3.org/2000/svg" width="32" height="32" viewBox="0 0 32 32">
<title>mobile-heart</title>
<path fill="#2c3238" d="M2.561 3.333h10.24v2.533h-10.24v-2.533zM12.801 23.6h-10.24v-2.533h10.24v-2.533h-10.24v-10.133h10.241v6.333h2.56v-11.4c0-1.397-1.149-2.533-2.561-2.533h-10.24c-1.412 0-2.56 1.136-2.56 2.533v20.267c0 1.397 1.148 2.533 2.56 2.533h10.24v-2.533z"></path>
<path fill="#38f" d="M0 5.84h15.36v2.56h-15.36v-2.56z"></path>
<path fill="#38f" d="M0 18.56h12.8v2.56h-12.8v-2.56z"></path>
<path fill="#38f" d="M20.482 19.8c-2.31 0-2.56 1.771-2.56 2.533 0 2.202 3.3 4.872 5.12 6.094 1.82-1.222 5.12-3.892 5.12-6.094 0-0.762-0.25-2.533-2.56-2.533-0.575 0-1.28 0.698-1.28 1.267 0 0.699-0.573 1.267-1.28 1.267s-1.28-0.567-1.28-1.267c0-0.569-0.705-1.267-1.28-1.267zM23.042 31.2c-0.228 0-0.456-0.060-0.659-0.181-0.718-0.426-7.021-4.295-7.021-8.686 0-3.031 2.057-5.067 5.12-5.067 0.941 0 1.859 0.419 2.56 1.072 0.701-0.652 1.619-1.072 2.56-1.072 3.062 0 5.12 2.036 5.12 5.067 0 4.39-6.303 8.26-7.021 8.686-0.204 0.122-0.431 0.181-0.659 0.181z"></path>
</svg>
