<!-- Generated by IcoMoon.io -->
<svg version="1.1" xmlns="http://www.w3.org/2000/svg" width="32" height="32" viewBox="0 0 32 32">
<title>mobile-heart</title>
<path fill="#2c3238" d="M2.627 3.009h10.503v2.598h-10.503v-2.598zM13.13 23.795h-10.503v-2.598h10.503v-2.598h-10.503v-10.393h10.504v6.496h2.626v-11.692c0-1.433-1.179-2.598-2.627-2.598h-10.503c-1.448 0-2.626 1.165-2.626 2.598v20.786c0 1.433 1.178 2.598 2.626 2.598h10.503v-2.598z"></path>
<path fill="#6a5aff" d="M0 5.58h15.754v2.626h-15.754v-2.626z"></path>
<path fill="#6a5aff" d="M0 18.626h13.128v2.626h-13.128v-2.626z"></path>
<path fill="#6a5aff" d="M21.007 19.897c-2.37 0-2.626 1.816-2.626 2.598 0 2.258 3.384 4.997 5.251 6.25 1.867-1.254 5.251-3.992 5.251-6.25 0-0.782-0.256-2.598-2.626-2.598-0.589 0-1.313 0.716-1.313 1.299 0 0.717-0.588 1.299-1.313 1.299s-1.313-0.582-1.313-1.299c0-0.583-0.723-1.299-1.313-1.299zM23.633 31.59c-0.234 0-0.467-0.061-0.676-0.186-0.736-0.436-7.201-4.405-7.201-8.908 0-3.109 2.11-5.197 5.251-5.197 0.965 0 1.906 0.43 2.626 1.099 0.719-0.669 1.661-1.099 2.626-1.099 3.14 0 5.251 2.088 5.251 5.197 0 4.503-6.464 8.472-7.201 8.908-0.209 0.125-0.442 0.186-0.676 0.186z"></path>
</svg>
