<!-- Generated by IcoMoon.io -->
<svg version="1.1" xmlns="http://www.w3.org/2000/svg" width="32" height="32" viewBox="0 0 32 32">
<title>orders</title>
<path fill="#2c3238" d="M7.38 2.667h4.62v5.333h-8.175l3.555-5.333zM22.843 8h-8.176v-5.333h4.62l3.556 5.333zM2.667 10.667h21.333v3.992h2.667v-5.325c0-0.009-0.004-0.016-0.005-0.025-0.003-0.155-0.035-0.305-0.091-0.451-0.015-0.039-0.035-0.071-0.052-0.108-0.025-0.051-0.043-0.107-0.076-0.156l-5.333-8c-0.248-0.371-0.663-0.593-1.109-0.593h-13.333c-0.445 0-0.863 0.223-1.109 0.593l-5.333 8c-0.033 0.049-0.051 0.105-0.076 0.156-0.017 0.037-0.037 0.069-0.052 0.108-0.056 0.145-0.088 0.296-0.091 0.451 0 0.009-0.005 0.016-0.005 0.025v16c0 0.736 0.597 1.333 1.333 1.333h12v-2.667h-10.667v-13.333z"></path>
<path fill="#38f" d="M24 29.074c-1.896-1.287-5.333-4.097-5.333-6.415 0-0.803 0.26-2.667 2.667-2.667 0.599 0 1.333 0.735 1.333 1.333 0 0.736 0.597 1.333 1.333 1.333 0.737 0 1.333-0.597 1.333-1.333 0-0.599 0.736-1.333 1.333-1.333 2.408 0 2.667 1.864 2.667 2.667 0 2.317-3.437 5.128-5.333 6.415zM26.667 17.326c-0.98 0-1.935 0.443-2.667 1.128-0.731-0.685-1.687-1.128-2.667-1.128-3.191 0-5.333 2.143-5.333 5.333 0 4.621 6.565 8.693 7.313 9.143 0.213 0.128 0.449 0.191 0.687 0.191 0.239 0 0.475-0.063 0.687-0.191 0.748-0.449 7.313-4.521 7.313-9.143 0-3.191-2.143-5.333-5.333-5.333z"></path>
</svg>
