<!-- Generated by IcoMoon.io -->
<svg version="1.1" xmlns="http://www.w3.org/2000/svg" width="30" height="32" viewBox="0 0 30 32">
<title>others</title>
<path fill="#2c3238" d="M20.99 24c-1.197 0-2.171-0.979-2.171-2.182s0.974-2.182 2.171-2.182c1.197 0 2.171 0.979 2.171 2.182s-0.974 2.182-2.171 2.182zM10.857 9.455c1.197 0 2.171 0.979 2.171 2.182s-0.974 2.182-2.171 2.182c-1.197 0-2.171-0.979-2.171-2.182s0.974-2.182 2.171-2.182zM25.333 3.636c1.197 0 2.171 0.979 2.171 2.182s-0.974 2.182-2.171 2.182c-1.197 0-2.171-0.979-2.171-2.182s0.974-2.182 2.171-2.182zM5.067 28.364c-1.197 0-2.171-0.979-2.171-2.182s0.974-2.182 2.171-2.182c1.197 0 2.171 0.979 2.171 2.182s-0.974 2.182-2.171 2.182zM30.4 5.818c0-2.807-2.273-5.091-5.067-5.091s-5.067 2.284-5.067 5.091c0 1.82 0.964 3.408 2.397 4.308l-1.795 6.614c-0.824 0.020-1.588 0.247-2.27 0.618l-3.303-3.319c0.388-0.719 0.628-1.529 0.628-2.403 0-2.807-2.273-5.091-5.067-5.091s-5.067 2.284-5.067 5.091c0 1.61 0.763 3.033 1.928 3.965l-2.203 5.535c-0.149-0.013-0.295-0.045-0.449-0.045-2.794 0-5.067 2.284-5.067 5.091s2.273 5.091 5.067 5.091c2.794 0 5.067-2.284 5.067-5.091 0-1.61-0.763-3.031-1.93-3.965l2.203-5.535c0.151 0.013 0.297 0.045 0.45 0.045 0.87 0 1.676-0.241 2.391-0.631l3.303 3.319c-0.388 0.719-0.628 1.529-0.628 2.403 0 2.807 2.273 5.091 5.067 5.091s5.067-2.284 5.067-5.091c0-1.82-0.964-3.408-2.397-4.308l1.795-6.614c2.736-0.067 4.945-2.313 4.945-5.078z"></path>
<path fill="#6a5aff" d="M25.333 10.909c-2.804 0-5.074-2.281-5.074-5.091s2.27-5.091 5.074-5.091c2.804 0 5.074 2.281 5.074 5.091s-2.27 5.091-5.074 5.091zM25.333 8c1.194 0 2.165-0.975 2.165-2.182s-0.971-2.182-2.165-2.182c-1.194 0-2.165 0.975-2.165 2.182s0.971 2.182 2.165 2.182z"></path>
</svg>
