<!-- Generated by IcoMoon.io -->
<svg version="1.1" xmlns="http://www.w3.org/2000/svg" width="32" height="32" viewBox="0 0 32 32">
<title>others</title>
<path fill="#212933" d="M6.545 12.419c0-2.802 2.272-5.074 5.074-5.074s5.074 2.272 5.074 5.074c0 0.832-0.2 1.618-0.556 2.311l3.364 2.883c0.673-0.386 1.443-0.621 2.264-0.662l2.492-8.544 2.688 0.784-2.449 8.397c1.55 0.868 2.598 2.527 2.598 4.43 0 2.802-2.272 5.074-5.074 5.074s-5.074-2.272-5.074-5.074c0-0.866 0.217-1.681 0.599-2.394l-3.324-2.849c-0.761 0.455-1.651 0.717-2.602 0.717-0.208 0-0.412-0.012-0.614-0.037l-2.506 6.264-2.6-1.040 2.527-6.317c-1.148-0.93-1.882-2.351-1.882-3.944zM11.619 10.255c-1.195 0-2.164 0.969-2.164 2.165s0.969 2.164 2.164 2.164c1.195 0 2.165-0.969 2.165-2.164s-0.969-2.165-2.165-2.165zM22.019 19.855c-1.195 0-2.164 0.969-2.164 2.165s0.969 2.164 2.164 2.164c1.195 0 2.165-0.969 2.165-2.164s-0.969-2.165-2.165-2.165z"></path>
<path fill="#212933" d="M0.945 26c0-2.792 2.263-5.055 5.055-5.055s5.055 2.263 5.055 5.055c0 2.792-2.263 5.054-5.055 5.054s-5.055-2.263-5.055-5.054zM6 23.855c-1.185 0-2.145 0.961-2.145 2.146s0.961 2.145 2.145 2.145 2.145-0.961 2.145-2.145c0-1.185-0.961-2.146-2.145-2.146z"></path>
<path fill="#38f" d="M21.060 5.867c0-2.802 2.272-5.074 5.074-5.074s5.074 2.272 5.074 5.074c0 2.802-2.272 5.074-5.074 5.074s-5.074-2.272-5.074-5.074zM26.133 3.702c-1.195 0-2.164 0.969-2.164 2.164s0.969 2.165 2.164 2.165c1.195 0 2.164-0.969 2.164-2.165s-0.969-2.164-2.164-2.164z"></path>
</svg>
