<!-- Generated by IcoMoon.io -->
<svg version="1.1" xmlns="http://www.w3.org/2000/svg" width="32" height="32" viewBox="0 0 32 32">
<title>payment</title>
<path fill="#2c3238" d="M29.396 24.622h-25.996v-18.044h26l-0.004 18.044zM29.4 4h-26c-1.434 0-2.6 1.156-2.6 2.578v18.044c0 1.422 1.166 2.578 2.6 2.578h26c1.434 0 2.6-1.156 2.6-2.578v-18.044c0-1.422-1.166-2.578-2.6-2.578z"></path>
<path fill="#38f" d="M23.333 14.742c0-0.473 0.39-0.858 0.867-0.858 0.478 0 0.867 0.385 0.867 0.858v0.858h-1.734v-0.858zM23.333 19.039v-1.719h1.734v1.719h1.733v-4.297c0-1.423-1.166-2.578-2.6-2.578s-2.6 1.155-2.6 2.578v4.297h1.733z"></path>
<path fill="#38f" d="M13.8 13.883v3.436h-0.867v1.719h6.5c1.196 0 2.167-0.965 2.167-2.15 0-1.183-0.971-2.147-2.167-2.147h-0.866c-0.241 0-0.434-0.191-0.434-0.431 0-0.237 0.194-0.428 0.434-0.428h3.033v-1.719h-3.033c-1.195 0-2.167 0.964-2.167 2.147 0 1.185 0.972 2.15 2.167 2.15h0.866c0.242 0 0.434 0.191 0.434 0.428 0 0.24-0.192 0.43-0.434 0.43h-3.9v-3.436h0.867v-1.719h-3.467v1.719h0.867z"></path>
<path fill="#38f" d="M9.434 19.039h1.784l-0.018-0.071 1.733-6.804h-1.782l-0.828 3.354-0.855-3.354h-3.467v1.719h2.161l1.274 5.156z"></path>
</svg>
