<!-- Generated by IcoMoon.io -->
<svg version="1.1" xmlns="http://www.w3.org/2000/svg" width="32" height="32" viewBox="0 0 32 32">
<title>quick-start</title>
<path fill="#2c3238" d="M24 26.538l-1.6-1.6v-21.738h1.6v23.338zM16 19.2c-0.41 0-0.819 0.157-1.131 0.469l-2.069 2.069v-18.538h6.4v18.538l-2.069-2.069c-0.312-0.312-0.722-0.469-1.131-0.469zM8 3.2h1.6v21.738l-1.6 1.6v-23.338zM25.6 0h-19.2c-0.883 0-1.6 0.717-1.6 1.6v28.8c0 0.646 0.39 1.23 0.987 1.478 0.598 0.246 1.285 0.109 1.744-0.347l8.469-8.469 8.469 8.469c0.306 0.307 0.715 0.469 1.131 0.469 0.206 0 0.414-0.040 0.613-0.122 0.597-0.248 0.987-0.832 0.987-1.478v-28.8c0-0.883-0.717-1.6-1.6-1.6z"></path>
<path fill="#38f" d="M19.2 3.2h3.2v21.732l-3.2-3.197v-18.535z"></path>
<path fill="#38f" d="M12.8 3.2h-3.2v21.732l3.2-3.197v-18.535z"></path>
</svg>
