<!-- Generated by IcoMoon.io -->
<svg version="1.1" xmlns="http://www.w3.org/2000/svg" width="32" height="32" viewBox="0 0 32 32">
<title>reports</title>
<path fill="#2c3238" d="M4 28.8h24v-25.6h-24v25.6zM29.6 32h-27.2c-0.883 0-1.6-0.717-1.6-1.6v-28.8c0-0.883 0.717-1.6 1.6-1.6h27.2c0.883 0 1.6 0.717 1.6 1.6v28.8c0 0.883-0.717 1.6-1.6 1.6v0z"></path>
<path fill="#6a5aff" d="M24.8 11.2h-17.6v-4.8h17.6z"></path>
<path fill="#2c3238" d="M15.2 16h-8v-3.2h8z"></path>
<path fill="#6a5aff" d="M15.2 20.8h-8v-3.2h8z"></path>
<path fill="#2c3238" d="M15.2 25.6h-8v-3.2h8z"></path>
<path fill="#2c3238" d="M24.8 16h-8v-3.2h8z"></path>
<path fill="#6a5aff" d="M24.8 20.8h-8v-3.2h8z"></path>
<path fill="#2c3238" d="M24.8 25.6h-8v-3.2h8z"></path>
</svg>
