<!-- Generated by IcoMoon.io -->
<svg version="1.1" xmlns="http://www.w3.org/2000/svg" width="29" height="32" viewBox="0 0 29 32">
<title>ribbon</title>
<path fill="#2c3238" d="M25.6 11.2h-6.4v-4.8c0-1.765 1.435-3.2 3.2-3.2s3.2 1.435 3.2 3.2v4.8zM16 6.4v20.138l-5.269-5.269c-0.312-0.312-0.722-0.469-1.131-0.469s-0.819 0.157-1.131 0.469l-5.269 5.269v-20.138c0-1.765 1.435-3.2 3.2-3.2h10.459c-0.547 0.942-0.859 2.035-0.859 3.2v0zM22.4 0h-16c-3.53 0-6.4 2.87-6.4 6.4v24c0 0.646 0.39 1.23 0.987 1.478 0.598 0.246 1.286 0.109 1.744-0.347l6.869-6.869 6.869 6.869c0.306 0.306 0.715 0.469 1.131 0.469 0.206 0 0.414-0.040 0.613-0.122 0.597-0.248 0.987-0.832 0.987-1.478v-16h8c0.883 0 1.6-0.717 1.6-1.6v-6.4c0-3.53-2.87-6.4-6.4-6.4v0z"></path>
<path fill="#6a5aff" d="M2.74 31.543c-1.007 1.011-2.734 0.298-2.734-1.129v-12.724c0-0.884 0.716-1.6 1.6-1.6s1.6 0.716 1.6 1.6v8.851l5.252-5.274c0.625-0.628 1.642-0.628 2.267 0l5.252 5.274v-8.851c0-0.884 0.716-1.6 1.6-1.6s1.6 0.716 1.6 1.6v12.724c0 1.427-1.727 2.14-2.734 1.129l-6.852-6.88-6.852 6.88z"></path>
</svg>
