<!-- Generated by IcoMoon.io -->
<svg version="1.1" xmlns="http://www.w3.org/2000/svg" width="32" height="32" viewBox="0 0 32 32">
<title>ribbon</title>
<path fill="#2c3238" d="M26.927 10.927h-6.244v-4.683c0-1.722 1.4-3.122 3.122-3.122s3.122 1.4 3.122 3.122v4.683zM17.561 6.244v19.646l-5.14-5.14c-0.304-0.304-0.704-0.457-1.104-0.457s-0.799 0.153-1.104 0.457l-5.14 5.14v-19.646c0-1.722 1.4-3.122 3.122-3.122h10.204c-0.534 0.919-0.838 1.986-0.838 3.122zM23.805 0h-15.61c-3.444 0-6.244 2.8-6.244 6.244v23.415c0 0.631 0.381 1.2 0.963 1.442 0.584 0.24 1.255 0.106 1.701-0.339l6.701-6.701 6.701 6.701c0.298 0.298 0.698 0.457 1.104 0.457 0.201 0 0.404-0.039 0.598-0.119 0.582-0.242 0.963-0.812 0.963-1.442v-15.61h7.805c0.862 0 1.561-0.699 1.561-1.561v-6.244c0-3.443-2.8-6.244-6.244-6.244z"></path>
<path fill="#38f" d="M4.625 30.774c-0.982 0.986-2.667 0.291-2.667-1.102v-12.414c0-0.862 0.699-1.561 1.561-1.561s1.561 0.699 1.561 1.561v8.635l5.124-5.145c0.61-0.613 1.602-0.613 2.212 0l5.124 5.145v-8.635c0-0.862 0.699-1.561 1.561-1.561s1.561 0.699 1.561 1.561v12.414c0 1.392-1.685 2.088-2.667 1.102l-6.685-6.712-6.685 6.712z"></path>
</svg>
