<!-- Generated by IcoMoon.io -->
<svg version="1.1" xmlns="http://www.w3.org/2000/svg" width="32" height="32" viewBox="0 0 32 32">
<title>search</title>
<path d="M12 24c2.841 0 5.452-0.999 7.511-2.656l10.211 10.263c0.519 0.523 1.361 0.524 1.885 0.004 0.523-0.52 0.524-1.364 0.005-1.885l-10.224-10.275c1.631-2.048 2.612-4.636 2.612-7.451 0-6.617-5.383-12-12-12s-12 5.383-12 12c0 6.616 5.383 12 12 12zM12 2.667c5.145 0 9.333 4.187 9.333 9.333 0 5.145-4.188 9.333-9.333 9.333-5.147 0-9.333-4.188-9.333-9.333 0-5.147 4.187-9.333 9.333-9.333z"></path>
</svg>
