<!-- Generated by IcoMoon.io -->
<svg version="1.1" xmlns="http://www.w3.org/2000/svg" width="37" height="32" viewBox="0 0 37 32">
<title>suitcase</title>
<path fill="#2c3238" d="M33.369 15.158h-8.342c0-1.856-1.497-3.368-3.337-3.368h-6.674c-1.84 0-3.337 1.512-3.337 3.368h-8.342v-3.368c0-0.93 0.749-1.684 1.668-1.684h26.695c0.919 0 1.668 0.755 1.668 1.684v3.368zM15.016 18.526v-3.368h6.674l-0.005 3.368h-6.669zM31.701 26.947c0 0.93-0.749 1.684-1.668 1.684h-23.358c-0.919 0-1.668-0.755-1.668-1.684v-8.421h6.674c0 1.858 1.497 3.368 3.337 3.368h6.674c1.84 0 3.337-1.511 3.337-3.368h6.674v8.421zM13.348 3.368h10.011v3.368h-10.011v-3.368zM31.701 6.737h-5.005v-3.368c0-1.856-1.497-3.368-3.337-3.368h-10.011c-1.84 0-3.337 1.512-3.337 3.368v3.368h-5.005c-2.76 0-5.005 2.267-5.005 5.053v6.737h1.668v8.421c0 2.786 2.246 5.053 5.005 5.053h23.358c2.76 0 5.005-2.267 5.005-5.053v-8.421h1.668v-6.737c0-2.786-2.246-5.053-5.005-5.053v0z"></path>
<path fill="#6a5aff" d="M3.765 15.059h29.176v-3.765c0-0.52-0.421-0.941-0.941-0.941h-27.294c-0.52 0-0.941 0.421-0.941 0.941v3.765zM4.706 6.588h27.294c2.599 0 4.706 2.107 4.706 4.706v7.529h-36.706v-7.529c0-2.599 2.107-4.706 4.706-4.706z"></path>
<path fill="#2c3238" d="M11.697 15.059h3.359v3.765h-3.359z"></path>
<path fill="#2c3238" d="M21.647 15.059h3.359v3.765h-3.359z"></path>
<path fill="#fff" d="M15.059 15.059h6.588v3.765h-6.588v-3.765z"></path>
</svg>
