<!-- Generated by IcoMoon.io -->
<svg version="1.1" xmlns="http://www.w3.org/2000/svg" width="32" height="32" viewBox="0 0 32 32">
<title>suitcase</title>
<path fill="#2a3138" d="M27.636 7.495c2.41 0 4.364 1.979 4.364 4.421v5.895h-1.455v7.368c0 2.442-1.954 4.421-4.364 4.421h-20.364c-2.41 0-4.364-1.979-4.364-4.421v-7.368h-1.455v-5.895c0-2.442 1.954-4.421 4.364-4.421h4.364v-2.947c0-1.628 1.302-2.947 2.909-2.947h8.727c1.607 0 2.909 1.32 2.909 2.947v2.947h4.364zM11.636 4.547v2.947h8.727v-2.947h-8.727zM26.182 26.653c0.803 0 1.455-0.66 1.455-1.474v-7.368h-5.818c0 1.628-1.302 2.947-2.909 2.947h-5.818c-1.607 0-2.909-1.32-2.909-2.947h-5.818v7.368c0 0.814 0.651 1.474 1.455 1.474h20.364zM13.091 17.811h5.818v-2.947h-5.818v2.947zM21.818 14.863h7.273v-2.947c0-0.814-0.651-1.474-1.454-1.474h-23.273c-0.803 0-1.455 0.66-1.455 1.474v2.947h7.273c0-1.628 1.302-2.947 2.909-2.947h5.818c1.607 0 2.909 1.32 2.909 2.947z"></path>
<path fill="#38f" d="M0 17.81h32v-5.777c0-2.507-2.006-4.539-4.48-4.539h-23.156c-2.41 0-4.364 1.979-4.364 4.421v5.895zM29.091 14.863h-26.182v-2.947c0-0.814 0.651-1.474 1.455-1.474h23.156c0.868 0 1.571 0.713 1.571 1.592v2.829z"></path>
<path fill="#fff" d="M18.371 13.389c1.181 0 2.138 0.97 2.138 2.166v1.562c0 0.575-0.225 1.126-0.626 1.532s-0.945 0.634-1.512 0.634h-4.742c-1.181 0-2.138-0.97-2.138-2.166v-1.562z"></path>
<path fill="#2a3138" d="M13.629 20.758h4.742c1.981-0.008 3.585-1.633 3.593-3.64v-1.562c-0.008-2.007-1.612-3.632-3.593-3.64h-4.742c-1.981 0.008-3.585 1.633-3.593 3.64v1.562c0.008 2.007 1.612 3.632 3.593 3.64zM13.146 15.066c0.128-0.13 0.302-0.203 0.483-0.203h4.742c0.378 0 0.684 0.31 0.684 0.693v1.562c0 0.184-0.072 0.36-0.2 0.49s-0.302 0.203-0.483 0.203h-4.742c-0.378 0-0.684-0.31-0.684-0.693v-1.562c0-0.184 0.072-0.36 0.2-0.49z"></path>
</svg>
