<!-- Generated by IcoMoon.io -->
<svg version="1.1" xmlns="http://www.w3.org/2000/svg" width="32" height="32" viewBox="0 0 32 32">
<title>thumb-up</title>
<path d="M20.267 10.311l6.611 0c1.252-0.014 2.447 0.522 3.268 1.467s1.187 2.202 0.998 3.442l-1.962 12.798c-0.319 2.104-2.139 3.651-4.251 3.627l-16.043 0c-0.785 0-1.422-0.637-1.422-1.422v-15.645c0-0.199 0.042-0.396 0.123-0.578l5.689-12.8c0.228-0.514 0.738-0.845 1.3-0.845 3.142 0 5.689 2.547 5.689 5.689v4.267zM24.948 28.8c0.709 0.008 1.316-0.508 1.423-1.211l1.962-12.798c0.063-0.413-0.059-0.832-0.333-1.147s-0.672-0.494-1.105-0.489h-8.050c-0.785 0-1.422-0.637-1.422-1.422v-5.689c0-1.269-0.832-2.345-1.98-2.711l-5.131 11.546v13.921l14.637-0zM7.467 28.8v-12.8h-2.844c-0.785 0-1.422 0.637-1.422 1.422v9.956c0 0.785 0.637 1.422 1.422 1.422h2.844zM8.889 31.644h-4.267c-2.356 0-4.267-1.91-4.267-4.267v-9.956c0-2.356 1.91-4.267 4.267-4.267h4.267c0.785 0 1.422 0.637 1.422 1.422v15.644c0 0.785-0.637 1.422-1.422 1.422z"></path>
</svg>
