<!-- Generated by IcoMoon.io -->
<svg version="1.1" xmlns="http://www.w3.org/2000/svg" width="32" height="32" viewBox="0 0 32 32">
<title>thumb-down</title>
<path d="M5.122 21.689c-1.252 0.014-2.447-0.522-3.268-1.467s-1.187-2.202-0.998-3.442l1.962-12.798c0.319-2.104 2.139-3.651 4.251-3.627l16.043-0c0.785 0 1.422 0.637 1.422 1.422v15.645c0 0.199-0.042 0.396-0.123 0.578l-5.689 12.8c-0.228 0.514-0.738 0.845-1.3 0.845-3.142 0-5.689-2.547-5.689-5.689v-4.267l-6.611-0zM21.689 3.2l-14.637 0c-0.709-0.008-1.316 0.508-1.423 1.211l-1.962 12.798c-0.063 0.413 0.059 0.832 0.333 1.147s0.672 0.494 1.105 0.489h8.050c0.785 0 1.422 0.637 1.422 1.422v5.689c0 1.269 0.832 2.345 1.98 2.711l5.131-11.546v-13.921zM24.533 3.2v12.8l2.4 0c0.917 0.016 1.705-0.637 1.866-1.532v-9.737c-0.161-0.895-0.95-1.548-1.892-1.531h-2.375zM23.111 0.356l3.772 0c2.387-0.042 4.428 1.71 4.748 4.076l0.013 0.191v9.956l-0.013 0.191c-0.32 2.366-2.361 4.118-4.723 4.076h-3.797c-0.785 0-1.422-0.637-1.422-1.422v-15.644c0-0.785 0.637-1.422 1.422-1.422z"></path>
</svg>
