<!-- Generated by IcoMoon.io -->
<svg version="1.1" xmlns="http://www.w3.org/2000/svg" width="32" height="32" viewBox="0 0 32 32">
<title>wand</title>
<path fill="#2c3238" d="M18.357 11.127l-17.863 17.863 2.381 2.381 17.863-17.863-2.381-2.381z"></path>
<path fill="#38f" d="M25.503 3.98l-4.765 4.765 2.382 2.382 4.765-4.765-2.382-2.381z"></path>
<path fill="#38f" d="M24.109 14.816l-0.872 3.254 6.51 1.743 0.871-3.252-6.508-1.745z"></path>
<path fill="#38f" d="M17.283 21.641l1.743 6.509 3.254-0.872-1.743-6.509-3.254 0.872z"></path>
<path fill="#38f" d="M17.049 7.755l-1.743-6.506-3.254 0.871 1.743 6.508 3.254-0.872z"></path>
<path fill="#38f" d="M11.095 11.329l-6.508-1.743-0.872 3.252 6.508 1.745 0.872-3.254z"></path>
</svg>
