<!-- Generated by IcoMoon.io -->
<svg version="1.1" xmlns="http://www.w3.org/2000/svg" width="32" height="32" viewBox="0 0 32 32">
<title>wheel</title>
<path fill="#212933" d="M4.487 14.41h5.111c0.585-2.365 2.447-4.227 4.812-4.812v-5.11c-5.146 0.703-9.22 4.777-9.923 9.923zM17.586 4.487v5.11c2.366 0.585 4.228 2.447 4.813 4.812h5.111c-0.704-5.146-4.777-9.22-9.924-9.923zM27.51 17.586h-5.111c-0.585 2.366-2.447 4.228-4.813 4.813v5.112c5.147-0.703 9.221-4.777 9.924-9.924zM14.41 27.51v-5.112c-2.365-0.585-4.227-2.447-4.812-4.812h-5.111c0.703 5.147 4.777 9.221 9.924 9.924zM1.6 15.998c0-7.952 6.446-14.398 14.398-14.398s14.398 6.446 14.398 14.398c0 7.952-6.446 14.398-14.398 14.398s-14.398-6.446-14.398-14.398zM15.998 12.184c-2.106 0-3.814 1.708-3.814 3.814s1.708 3.814 3.814 3.814c2.106 0 3.814-1.708 3.814-3.814s-1.708-3.814-3.814-3.814z"></path>
<path fill="#38f" d="M17.586 4.849c0-0.877-0.711-1.588-1.588-1.588s-1.588 0.711-1.588 1.588v4.951c0 0.877 0.711 1.588 1.588 1.588s1.588-0.711 1.588-1.588v-4.951zM17.586 22.194c0-0.877-0.711-1.588-1.588-1.588s-1.588 0.711-1.588 1.588v4.952c0 0.877 0.711 1.588 1.588 1.588s1.588-0.711 1.588-1.588v-4.952zM20.606 15.998c0-0.877 0.711-1.588 1.588-1.588h4.952c0.877 0 1.588 0.711 1.588 1.588s-0.711 1.588-1.588 1.588h-4.952c-0.877 0-1.588-0.711-1.588-1.588zM4.849 14.409c-0.877 0-1.588 0.711-1.588 1.588s0.711 1.588 1.588 1.588h4.951c0.877 0 1.588-0.711 1.588-1.588s-0.711-1.588-1.588-1.588h-4.951z"></path>
</svg>
