<!-- Generated by IcoMoon.io -->
<svg version="1.1" xmlns="http://www.w3.org/2000/svg" width="32" height="32" viewBox="0 0 32 32">
<title>wheel</title>
<path fill="#2c3238" d="M28.016 13.649h-0.302c-1.002-4.385-4.455-7.839-8.841-8.841v-0.302c0-0.721-0.584-1.306-1.306-1.306h-2.612c-0.722 0-1.306 0.585-1.306 1.306v0.302c-4.385 1-7.839 4.455-8.84 8.841h-0.303c-0.722 0-1.306 0.585-1.306 1.306v2.612c0 0.721 0.584 1.306 1.306 1.306h0.303c1 4.385 4.454 7.839 8.84 8.841v0.302c0 0.721 0.584 1.306 1.306 1.306h2.612c0.722 0 1.306-0.585 1.306-1.306v-0.302c4.385-1 7.839-4.455 8.841-8.841h0.302c0.722 0 1.306-0.585 1.306-1.306v-2.612c0-0.721-0.584-1.306-1.306-1.306zM25.020 13.649h-4.261c-0.457-0.782-1.102-1.429-1.886-1.885v-4.261c2.944 0.88 5.266 3.203 6.147 6.145zM16.261 18.873c-1.442 0-2.612-1.172-2.612-2.612s1.17-2.612 2.612-2.612c1.442 0 2.612 1.172 2.612 2.612s-1.17 2.612-2.612 2.612zM13.649 7.504v4.261c-0.782 0.456-1.429 1.104-1.885 1.885h-4.261c0.88-2.943 3.203-5.265 6.145-6.145zM7.504 18.873h4.261c0.457 0.785 1.104 1.43 1.885 1.885v4.261c-2.943-0.879-5.265-3.201-6.145-6.145zM18.873 25.019v-4.261c0.784-0.456 1.429-1.101 1.885-1.885h4.261c-0.879 2.944-3.201 5.266-6.145 6.145z"></path>
<path fill="#6a5aff" d="M15.249 3.2h2.024c0.884 0 1.6 0.716 1.6 1.6v6.89h-5.224v-6.89c0-0.884 0.716-1.6 1.6-1.6z"></path>
</svg>
