<!-- Generated by IcoMoon.io -->
<svg version="1.1" xmlns="http://www.w3.org/2000/svg" width="32" height="32" viewBox="0 0 32 32">
<title>widget</title>
<path fill="#2c3238" d="M28 25.333h-24c-0.12 0-0.335-0.167-0.364-0.283l-0.595-2.384h8.407l0.943 0.943c0.251 0.251 0.589 0.391 0.943 0.391h5.333c0.353 0 0.692-0.14 0.943-0.391l0.943-0.943h8.407l-0.595 2.384c-0.031 0.116-0.244 0.283-0.364 0.283zM4 6.667h24v13.333h-8c-0.353 0-0.692 0.14-0.943 0.391l-0.943 0.943h-4.229l-0.943-0.943c-0.251-0.251-0.589-0.391-0.943-0.391h-8v-13.333zM30.991 20.040c-0.109-0.028-0.216-0.015-0.324-0.015v-14.692c0-0.736-0.597-1.333-1.333-1.333h-26.667c-0.736 0-1.333 0.597-1.333 1.333v14.692c-0.108 0-0.215-0.013-0.324 0.015-0.713 0.179-1.148 0.903-0.969 1.617l1.011 4.040c0.328 1.313 1.596 2.303 2.949 2.303h24c1.353 0 2.623-0.991 2.951-2.303l1.009-4.040c0.179-0.715-0.256-1.439-0.969-1.617z"></path>
<path fill="#38f" d="M16 6c0.368 0 0.667-0.298 0.667-0.667s-0.298-0.667-0.667-0.667c-0.368 0-0.667 0.298-0.667 0.667s0.298 0.667 0.667 0.667z"></path>
</svg>
